<?xml version="1.0" encoding="utf-8"?>
<!-- Generator: Adobe Illustrator 23.0.5, SVG Export Plug-In . SVG Version: 6.00 Build 0)  -->
<svg version="1.1" id="Capa_1" xmlns="http://www.w3.org/2000/svg" xmlns:xlink="http://www.w3.org/1999/xlink" x="0px" y="0px"
	 viewBox="0 0 26 26" style="enable-background:new 0 0 26 26;" xml:space="preserve">
<style type="text/css">
	.st0{fill:#333333;}
</style>
<g>
	<path class="st0" d="M25.9,17.6c0.2,0.5,0,1.1-0.5,1.3l-11,5C14.3,24,14.1,24,14,24c-0.1,0-0.2,0-0.3,0l-13-4
		c-0.5-0.2-0.8-0.7-0.7-1.3c0.2-0.5,0.7-0.8,1.3-0.7l12.6,3.9l10.7-4.8C25.1,16.9,25.7,17.1,25.9,17.6z M13.9,17.9L1.3,14.1
		c-0.5-0.2-1.1,0.1-1.3,0.7c-0.2,0.5,0.1,1.1,0.7,1.3l13,4c0.1,0,0.2,0,0.3,0c0.1,0,0.3,0,0.4-0.1l11-5c0.5-0.2,0.7-0.8,0.5-1.3
		c-0.2-0.5-0.8-0.7-1.3-0.5L13.9,17.9z M0,11.1c0-0.4,0.2-0.8,0.6-1L7.9,7C9.4,6.4,10,5.7,10,3c0-0.3,0.1-0.6,0.4-0.8
		C10.7,2,11,1.9,11.3,2l12.9,3.2c0.4,0.1,0.8,0.5,0.8,1v0.2c0,3,0,4.9-3.6,6.4c-2.4,1-6.9,3.1-6.9,3.1C14.3,16,14.1,16,14,16
		c-0.1,0-0.2,0-0.3,0l-13-4C0.3,11.8,0,11.5,0,11.1z M3.9,10.9l10,3.1c1.1-0.5,4.6-2.1,6.6-3C22.8,10,23,9.3,23,7L12,4.3
		c-0.2,2.1-1,3.6-3.3,4.6L3.9,10.9z"/>
</g>
</svg>
